<svg xmlns="http://www.w3.org/2000/svg" xmlns:xlink="http://www.w3.org/1999/xlink" width="100" zoomAndPan="magnify" viewBox="0 0 75 37.5" height="50" preserveAspectRatio="xMidYMid meet" version="1.2"><defs/><g id="7b6d3116c2"><g style="fill:#ff3f4b;fill-opacity:1;"><g transform="translate(33.541115, 21.798228)"><path style="stroke:none" d="M 4.25 -2.515625 L 1.8125 -2.515625 L 1.8125 0 L 0.546875 0 L 0.546875 -6.15625 L 4.5625 -6.15625 L 4.5625 -5.125 L 1.8125 -5.125 L 1.8125 -3.53125 L 4.25 -3.53125 Z M 4.25 -2.515625 "/></g></g><g style="fill:#ff3f4b;fill-opacity:1;"><g transform="translate(40.177582, 21.798228)"><path style="stroke:none" d="M 1.890625 0 L 0.625 0 L 0.625 -6.15625 L 1.890625 -6.15625 Z M 1.890625 0 "/></g></g><g style="fill:#ff3f4b;fill-opacity:1;"><g transform="translate(44.595569, 21.798228)"><path style="stroke:none" d="M 1.8125 -1.015625 L 4.515625 -1.015625 L 4.515625 0 L 0.546875 0 L 0.546875 -6.15625 L 1.8125 -6.15625 Z M 1.8125 -1.015625 "/></g></g><g style="fill:#ff3f4b;fill-opacity:1;"><g transform="translate(51.177102, 21.798228)"><path style="stroke:none" d="M 2.203125 -6.15625 L 3.78125 -1.6875 L 5.359375 -6.15625 L 7.03125 -6.15625 L 7.03125 0 L 5.75 0 L 5.75 -1.6875 L 5.875 -4.59375 L 4.21875 0 L 3.34375 0 L 1.6875 -4.578125 L 1.8125 -1.6875 L 1.8125 0 L 0.546875 0 L 0.546875 -6.15625 Z M 2.203125 -6.15625 "/></g></g><g style="fill:#ff3f4b;fill-opacity:1;"><g transform="translate(60.653222, 21.798228)"><path style="stroke:none" d="M 4.25 -2.671875 L 1.8125 -2.671875 L 1.8125 -1.015625 L 4.671875 -1.015625 L 4.671875 0 L 0.546875 0 L 0.546875 -6.15625 L 4.671875 -6.15625 L 4.671875 -5.125 L 1.8125 -5.125 L 1.8125 -3.65625 L 4.25 -3.65625 Z M 4.25 -2.671875 "/></g></g><g style="fill:#ff3f4b;fill-opacity:1;"><g transform="translate(67.416459, 21.798228)"><path style="stroke:none" d="M 3.734375 -1.609375 C 3.734375 -1.847656 3.648438 -2.03125 3.484375 -2.15625 C 3.316406 -2.289062 3.015625 -2.425781 2.578125 -2.5625 C 2.140625 -2.707031 1.789062 -2.851562 1.53125 -3 C 0.832031 -3.375 0.484375 -3.878906 0.484375 -4.515625 C 0.484375 -4.847656 0.578125 -5.144531 0.765625 -5.40625 C 0.953125 -5.664062 1.21875 -5.867188 1.5625 -6.015625 C 1.914062 -6.160156 2.3125 -6.234375 2.75 -6.234375 C 3.1875 -6.234375 3.578125 -6.15625 3.921875 -6 C 4.265625 -5.84375 4.53125 -5.617188 4.71875 -5.328125 C 4.914062 -5.035156 5.015625 -4.707031 5.015625 -4.34375 L 3.75 -4.34375 C 3.75 -4.625 3.660156 -4.84375 3.484375 -5 C 3.304688 -5.15625 3.054688 -5.234375 2.734375 -5.234375 C 2.421875 -5.234375 2.175781 -5.164062 2 -5.03125 C 1.832031 -4.894531 1.75 -4.722656 1.75 -4.515625 C 1.75 -4.316406 1.847656 -4.148438 2.046875 -4.015625 C 2.253906 -3.878906 2.550781 -3.75 2.9375 -3.625 C 3.664062 -3.414062 4.191406 -3.148438 4.515625 -2.828125 C 4.847656 -2.503906 5.015625 -2.101562 5.015625 -1.625 C 5.015625 -1.09375 4.8125 -0.675781 4.40625 -0.375 C 4 -0.0703125 3.457031 0.078125 2.78125 0.078125 C 2.3125 0.078125 1.878906 -0.00390625 1.484375 -0.171875 C 1.097656 -0.347656 0.800781 -0.585938 0.59375 -0.890625 C 0.394531 -1.191406 0.296875 -1.539062 0.296875 -1.9375 L 1.5625 -1.9375 C 1.5625 -1.257812 1.96875 -0.921875 2.78125 -0.921875 C 3.082031 -0.921875 3.316406 -0.976562 3.484375 -1.09375 C 3.648438 -1.21875 3.734375 -1.390625 3.734375 -1.609375 Z M 3.734375 -1.609375 "/></g></g><g style="fill:#ffffff;fill-opacity:1;"><g transform="translate(0.967104, 21.741384)"><path style="stroke:none" d="M 0.828125 0 C 0.765625 0 0.710938 -0.0195312 0.671875 -0.0625 C 0.628906 -0.113281 0.609375 -0.164062 0.609375 -0.21875 L 0.609375 -5.984375 C 0.609375 -6.046875 0.628906 -6.097656 0.671875 -6.140625 C 0.710938 -6.191406 0.765625 -6.21875 0.828125 -6.21875 L 3.5625 -6.21875 C 4.3125 -6.21875 4.867188 -6.0625 5.234375 -5.75 C 5.609375 -5.445312 5.796875 -5.007812 5.796875 -4.4375 C 5.796875 -4.15625 5.71875 -3.910156 5.5625 -3.703125 C 5.414062 -3.492188 5.25 -3.34375 5.0625 -3.25 C 5.3125 -3.144531 5.515625 -2.96875 5.671875 -2.71875 C 5.835938 -2.476562 5.921875 -2.203125 5.921875 -1.890625 C 5.921875 -1.296875 5.722656 -0.832031 5.328125 -0.5 C 4.941406 -0.164062 4.378906 0 3.640625 0 Z M 3.375 -3.75 C 3.59375 -3.75 3.757812 -3.804688 3.875 -3.921875 C 4 -4.046875 4.0625 -4.203125 4.0625 -4.390625 C 4.0625 -4.578125 4.003906 -4.726562 3.890625 -4.84375 C 3.773438 -4.957031 3.601562 -5.015625 3.375 -5.015625 L 2.265625 -5.015625 L 2.265625 -3.75 Z M 3.46875 -1.203125 C 3.695312 -1.203125 3.875 -1.265625 4 -1.390625 C 4.125 -1.523438 4.1875 -1.691406 4.1875 -1.890625 C 4.1875 -2.085938 4.117188 -2.253906 3.984375 -2.390625 C 3.859375 -2.523438 3.6875 -2.59375 3.46875 -2.59375 L 2.265625 -2.59375 L 2.265625 -1.203125 Z M 3.46875 -1.203125 "/></g></g><g style="fill:#ffffff;fill-opacity:1;"><g transform="translate(6.713521, 21.741384)"><path style="stroke:none" d="M 3.171875 0.09375 C 2.335938 0.09375 1.675781 -0.109375 1.1875 -0.515625 C 0.707031 -0.929688 0.453125 -1.535156 0.421875 -2.328125 C 0.410156 -2.492188 0.40625 -2.75 0.40625 -3.09375 C 0.40625 -3.4375 0.410156 -3.691406 0.421875 -3.859375 C 0.441406 -4.640625 0.695312 -5.238281 1.1875 -5.65625 C 1.6875 -6.082031 2.347656 -6.296875 3.171875 -6.296875 C 3.992188 -6.296875 4.648438 -6.082031 5.140625 -5.65625 C 5.640625 -5.238281 5.898438 -4.640625 5.921875 -3.859375 C 5.941406 -3.515625 5.953125 -3.257812 5.953125 -3.09375 C 5.953125 -2.914062 5.941406 -2.660156 5.921875 -2.328125 C 5.898438 -1.535156 5.644531 -0.929688 5.15625 -0.515625 C 4.675781 -0.109375 4.015625 0.09375 3.171875 0.09375 Z M 3.171875 -1.25 C 3.484375 -1.25 3.726562 -1.335938 3.90625 -1.515625 C 4.09375 -1.703125 4.191406 -1.988281 4.203125 -2.375 C 4.210938 -2.71875 4.21875 -2.960938 4.21875 -3.109375 C 4.21875 -3.265625 4.210938 -3.503906 4.203125 -3.828125 C 4.191406 -4.210938 4.09375 -4.5 3.90625 -4.6875 C 3.726562 -4.875 3.484375 -4.96875 3.171875 -4.96875 C 2.859375 -4.96875 2.609375 -4.875 2.421875 -4.6875 C 2.242188 -4.5 2.148438 -4.210938 2.140625 -3.828125 C 2.128906 -3.660156 2.125 -3.421875 2.125 -3.109375 C 2.125 -2.796875 2.128906 -2.550781 2.140625 -2.375 C 2.148438 -1.988281 2.242188 -1.703125 2.421875 -1.515625 C 2.609375 -1.335938 2.859375 -1.25 3.171875 -1.25 Z M 3.171875 -1.25 "/></g></g><g style="fill:#ffffff;fill-opacity:1;"><g transform="translate(12.530996, 21.741384)"><path style="stroke:none" d="M 2.953125 0.09375 C 2.378906 0.09375 1.890625 0.0078125 1.484375 -0.15625 C 1.085938 -0.320312 0.785156 -0.539062 0.578125 -0.8125 C 0.367188 -1.082031 0.257812 -1.378906 0.25 -1.703125 C 0.25 -1.753906 0.265625 -1.796875 0.296875 -1.828125 C 0.335938 -1.867188 0.382812 -1.890625 0.4375 -1.890625 L 1.625 -1.890625 C 1.695312 -1.890625 1.753906 -1.875 1.796875 -1.84375 C 1.835938 -1.820312 1.882812 -1.785156 1.9375 -1.734375 C 2.019531 -1.585938 2.140625 -1.46875 2.296875 -1.375 C 2.460938 -1.289062 2.679688 -1.25 2.953125 -1.25 C 3.273438 -1.25 3.519531 -1.296875 3.6875 -1.390625 C 3.863281 -1.484375 3.953125 -1.617188 3.953125 -1.796875 C 3.953125 -1.921875 3.90625 -2.019531 3.8125 -2.09375 C 3.726562 -2.175781 3.585938 -2.25 3.390625 -2.3125 C 3.191406 -2.375 2.910156 -2.441406 2.546875 -2.515625 C 1.828125 -2.660156 1.289062 -2.878906 0.9375 -3.171875 C 0.582031 -3.460938 0.40625 -3.875 0.40625 -4.40625 C 0.40625 -4.78125 0.503906 -5.109375 0.703125 -5.390625 C 0.910156 -5.679688 1.203125 -5.90625 1.578125 -6.0625 C 1.953125 -6.21875 2.390625 -6.296875 2.890625 -6.296875 C 3.410156 -6.296875 3.859375 -6.207031 4.234375 -6.03125 C 4.617188 -5.851562 4.914062 -5.628906 5.125 -5.359375 C 5.332031 -5.085938 5.441406 -4.820312 5.453125 -4.5625 C 5.453125 -4.507812 5.429688 -4.460938 5.390625 -4.421875 C 5.359375 -4.378906 5.316406 -4.359375 5.265625 -4.359375 L 4.015625 -4.359375 C 3.890625 -4.359375 3.789062 -4.414062 3.71875 -4.53125 C 3.6875 -4.65625 3.59375 -4.757812 3.4375 -4.84375 C 3.289062 -4.925781 3.109375 -4.96875 2.890625 -4.96875 C 2.640625 -4.96875 2.445312 -4.921875 2.3125 -4.828125 C 2.175781 -4.742188 2.109375 -4.617188 2.109375 -4.453125 C 2.109375 -4.273438 2.195312 -4.132812 2.375 -4.03125 C 2.550781 -3.9375 2.882812 -3.84375 3.375 -3.75 C 3.925781 -3.644531 4.363281 -3.515625 4.6875 -3.359375 C 5.019531 -3.210938 5.265625 -3.019531 5.421875 -2.78125 C 5.578125 -2.539062 5.65625 -2.238281 5.65625 -1.875 C 5.65625 -1.46875 5.539062 -1.113281 5.3125 -0.8125 C 5.082031 -0.519531 4.765625 -0.296875 4.359375 -0.140625 C 3.953125 0.015625 3.484375 0.09375 2.953125 0.09375 Z M 2.953125 0.09375 "/></g></g><g style="fill:#ffffff;fill-opacity:1;"><g transform="translate(17.913266, 21.741384)"><path style="stroke:none" d="M 3.171875 0.09375 C 2.328125 0.09375 1.664062 -0.109375 1.1875 -0.515625 C 0.707031 -0.929688 0.453125 -1.53125 0.421875 -2.3125 C 0.410156 -2.476562 0.40625 -2.738281 0.40625 -3.09375 C 0.40625 -3.457031 0.410156 -3.722656 0.421875 -3.890625 C 0.453125 -4.660156 0.707031 -5.253906 1.1875 -5.671875 C 1.675781 -6.085938 2.335938 -6.296875 3.171875 -6.296875 C 3.703125 -6.296875 4.175781 -6.207031 4.59375 -6.03125 C 5.007812 -5.863281 5.335938 -5.617188 5.578125 -5.296875 C 5.828125 -4.972656 5.957031 -4.585938 5.96875 -4.140625 C 5.96875 -4.085938 5.945312 -4.039062 5.90625 -4 C 5.863281 -3.96875 5.816406 -3.953125 5.765625 -3.953125 L 4.515625 -3.953125 C 4.429688 -3.953125 4.367188 -3.96875 4.328125 -4 C 4.285156 -4.039062 4.25 -4.101562 4.21875 -4.1875 C 4.132812 -4.476562 4.007812 -4.679688 3.84375 -4.796875 C 3.675781 -4.910156 3.453125 -4.96875 3.171875 -4.96875 C 2.503906 -4.96875 2.160156 -4.597656 2.140625 -3.859375 C 2.128906 -3.691406 2.125 -3.441406 2.125 -3.109375 C 2.125 -2.785156 2.128906 -2.535156 2.140625 -2.359375 C 2.160156 -1.617188 2.503906 -1.25 3.171875 -1.25 C 3.441406 -1.25 3.664062 -1.304688 3.84375 -1.421875 C 4.019531 -1.535156 4.144531 -1.738281 4.21875 -2.03125 C 4.25 -2.113281 4.285156 -2.171875 4.328125 -2.203125 C 4.367188 -2.234375 4.429688 -2.25 4.515625 -2.25 L 5.765625 -2.25 C 5.816406 -2.25 5.863281 -2.226562 5.90625 -2.1875 C 5.945312 -2.15625 5.96875 -2.113281 5.96875 -2.0625 C 5.957031 -1.625 5.828125 -1.238281 5.578125 -0.90625 C 5.335938 -0.582031 5.007812 -0.332031 4.59375 -0.15625 C 4.175781 0.0078125 3.703125 0.09375 3.171875 0.09375 Z M 3.171875 0.09375 "/></g></g><g style="fill:#ffffff;fill-opacity:1;"><g transform="translate(23.650806, 21.741384)"><path style="stroke:none" d="M 3.171875 0.09375 C 2.335938 0.09375 1.675781 -0.109375 1.1875 -0.515625 C 0.707031 -0.929688 0.453125 -1.535156 0.421875 -2.328125 C 0.410156 -2.492188 0.40625 -2.75 0.40625 -3.09375 C 0.40625 -3.4375 0.410156 -3.691406 0.421875 -3.859375 C 0.441406 -4.640625 0.695312 -5.238281 1.1875 -5.65625 C 1.6875 -6.082031 2.347656 -6.296875 3.171875 -6.296875 C 3.992188 -6.296875 4.648438 -6.082031 5.140625 -5.65625 C 5.640625 -5.238281 5.898438 -4.640625 5.921875 -3.859375 C 5.941406 -3.515625 5.953125 -3.257812 5.953125 -3.09375 C 5.953125 -2.914062 5.941406 -2.660156 5.921875 -2.328125 C 5.898438 -1.535156 5.644531 -0.929688 5.15625 -0.515625 C 4.675781 -0.109375 4.015625 0.09375 3.171875 0.09375 Z M 3.171875 -1.25 C 3.484375 -1.25 3.726562 -1.335938 3.90625 -1.515625 C 4.09375 -1.703125 4.191406 -1.988281 4.203125 -2.375 C 4.210938 -2.71875 4.21875 -2.960938 4.21875 -3.109375 C 4.21875 -3.265625 4.210938 -3.503906 4.203125 -3.828125 C 4.191406 -4.210938 4.09375 -4.5 3.90625 -4.6875 C 3.726562 -4.875 3.484375 -4.96875 3.171875 -4.96875 C 2.859375 -4.96875 2.609375 -4.875 2.421875 -4.6875 C 2.242188 -4.5 2.148438 -4.210938 2.140625 -3.828125 C 2.128906 -3.660156 2.125 -3.421875 2.125 -3.109375 C 2.125 -2.796875 2.128906 -2.550781 2.140625 -2.375 C 2.148438 -1.988281 2.242188 -1.703125 2.421875 -1.515625 C 2.609375 -1.335938 2.859375 -1.25 3.171875 -1.25 Z M 3.171875 -1.25 "/></g></g><g style="fill:#ffffff;fill-opacity:1;"><g transform="translate(29.272882, 21.741384)"><path style="stroke:none" d="M 2.375 0 C 2.28125 0 2.203125 -0.0234375 2.140625 -0.078125 C 2.078125 -0.128906 2.03125 -0.191406 2 -0.265625 L 0.21875 -5.953125 L 0.1875 -6.03125 C 0.1875 -6.070312 0.207031 -6.113281 0.25 -6.15625 C 0.289062 -6.195312 0.335938 -6.21875 0.390625 -6.21875 L 1.546875 -6.21875 C 1.640625 -6.21875 1.710938 -6.191406 1.765625 -6.140625 C 1.828125 -6.085938 1.863281 -6.03125 1.875 -5.96875 L 3.09375 -1.96875 L 4.296875 -5.96875 C 4.316406 -6.039062 4.351562 -6.097656 4.40625 -6.140625 C 4.46875 -6.191406 4.539062 -6.21875 4.625 -6.21875 L 5.796875 -6.21875 C 5.847656 -6.21875 5.890625 -6.195312 5.921875 -6.15625 C 5.960938 -6.113281 5.984375 -6.070312 5.984375 -6.03125 C 5.984375 -6 5.976562 -5.972656 5.96875 -5.953125 L 4.171875 -0.265625 C 4.148438 -0.191406 4.109375 -0.128906 4.046875 -0.078125 C 3.984375 -0.0234375 3.90625 0 3.8125 0 Z M 2.375 0 "/></g></g></g></svg>